<?xml version="1.0" standalone="no"?><svg xmlns="http://www.w3.org/2000/svg" viewBox="0 0 1440 320"><path fill="#198754" fill-opacity="0.3" d="M0,96L0,192L49.7,192L49.7,192L99.3,192L99.3,96L149,96L149,192L198.6,192L198.6,288L248.3,288L248.3,128L297.9,128L297.9,320L347.6,320L347.6,192L397.2,192L397.2,128L446.9,128L446.9,224L496.6,224L496.6,128L546.2,128L546.2,192L595.9,192L595.9,32L645.5,32L645.5,32L695.2,32L695.2,256L744.8,256L744.8,128L794.5,128L794.5,288L844.1,288L844.1,192L893.8,192L893.8,0L943.4,0L943.4,128L993.1,128L993.1,64L1042.8,64L1042.8,96L1092.4,96L1092.4,224L1142.1,224L1142.1,256L1191.7,256L1191.7,160L1241.4,160L1241.4,32L1291,32L1291,224L1340.7,224L1340.7,32L1390.3,32L1390.3,96L1440,96L1440,320L1390.3,320L1390.3,320L1340.7,320L1340.7,320L1291,320L1291,320L1241.4,320L1241.4,320L1191.7,320L1191.7,320L1142.1,320L1142.1,320L1092.4,320L1092.4,320L1042.8,320L1042.8,320L993.1,320L993.1,320L943.4,320L943.4,320L893.8,320L893.8,320L844.1,320L844.1,320L794.5,320L794.5,320L744.8,320L744.8,320L695.2,320L695.2,320L645.5,320L645.5,320L595.9,320L595.9,320L546.2,320L546.2,320L496.6,320L496.6,320L446.9,320L446.9,320L397.2,320L397.2,320L347.6,320L347.6,320L297.9,320L297.9,320L248.3,320L248.3,320L198.6,320L198.6,320L149,320L149,320L99.3,320L99.3,320L49.7,320L49.7,320L0,320L0,320Z"></path></svg>